<svg width="0" height="0" class="hidden">
  <symbol xmlns="http://www.w3.org/2000/svg" shape-rendering="geometricPrecision" image-rendering="optimizeQuality" fill-rule="evenodd" xmlnsV="https://vecta.io/nano" viewBox="0 0 9697 7568" id="cart">
    <path d="M9237 3225H7742c-333 0-484-237-355-538l925-2139c86-194 0-430-204-516-194-86-430 10-516 204L6527 2687c-129 301-505 538-828 538H3968c-322 0-698-237-827-538L2076 236c-86-194-322-290-516-204-204 86-290 322-204 516l925 2139c128 301-22 538-355 538H474c-322 0-527 258-462 570l731 3193c75 322 398 580 731 580h6677c322 0 656-258 731-570l795-3203c86-312-118-570-440-570zM2678 6611c0 151-118 280-279 280-151 0-280-129-280-280V4106c0-161 129-279 280-279 161 0 279 118 279 279v2505zm1581 0c0 151-129 280-280 280-150 0-279-129-279-280V4106c0-161 129-279 279-279 151 0 280 118 280 279v2505zm1569 0c0 151-129 280-279 280-151 0-280-129-280-280V4106c0-161 129-279 280-279 150 0 279 118 279 279v2505zm1581 0c0 151-129 280-280 280-150 0-279-129-279-280V4106c0-161 129-279 279-279 151 0 280 118 280 279v2505z"></path>
  </symbol>
  <symbol xmlns="http://www.w3.org/2000/svg" shape-rendering="geometricPrecision" image-rendering="optimizeQuality" fill-rule="evenodd" xmlnsV="https://vecta.io/nano" viewBox="0 0 13234 12285" id="like">
    <path d="M13214 3665C13008 1539 11513 0 9622 0 8376 0 7218 674 6588 1759 5943 660 4843 0 3612 0 1721 0 225 1539 20 3665c-15 88-73 586 117 1393 279 1158 909 2213 1833 3049l4618 4178 4676-4178c924-836 1554-1891 1832-3049 191-807 132-1305 118-1393zm-616 1275c-249 1071-836 2023-1671 2786l-4339 3884-4266-3884C1471 6963 885 6011 636 4940c-176-762-103-1187-103-1187v-29C694 1862 1999 499 3612 499c1187 0 2243 732 2741 1920l235 557 219-557C7291 1261 8405 499 9622 499c1613 0 2917 1363 3079 3239 0 15 73 440-103 1202z"></path>
  </symbol>
  <symbol xmlns="http://www.w3.org/2000/svg" shape-rendering="geometricPrecision" image-rendering="optimizeQuality" fill-rule="evenodd" xmlnsV="https://vecta.io/nano" viewBox="0 0 7552 8601" id="profile">
    <path d="M4577 4596l19-286c239 86 487 124 734 124 1231 0 2222-982 2222-2212C7552 1001 6561 0 5330 0 4158 0 3194 925 3128 2079h-696c-325 0-630 133-859 372-228 248-333 562-314 887l76 1258c0 553 229 1049 591 1373v220l-238 372-1154 305C219 6952 0 7247 0 7581v582c0 238 191 438 429 438h5054c238 0 439-200 439-438v-582c0-334-229-629-544-715l-1144-305-248-372v-220c362-324 591-820 591-1373zM2966 6789l-744-619c219 133 477 200 744 200s515-67 743-200l-743 619zm-868-352l658 543-363 363h-9l-448-668 162-238zm868 1421h28l96 467h-258l95-467h39zm152-439c0 86-67 162-152 162-86 0-162-76-162-162v-86l162-162 152 162v86zm48-439l648-543 162 238-438 668h-10l-362-363zM5330 277c1078 0 1946 877 1946 1945s-868 1945-1946 1945c-247 0-486-48-715-133l48-696c19-325-95-639-324-887-220-239-525-372-849-372h-86c77-1001 906-1802 1926-1802zM1774 2641c171-181 410-276 658-276h1058c248 0 477 95 649 276 171 191 257 430 238 677l-19 420c-124-238-239-400-258-410-38-48-105-67-162-48-686 286-2002 286-2021 286-29 0-57 19-86 39-10 0-134 104-258 305l-38-592c-19-247 67-486 239-677zm-162 1955c47-400 276-667 362-744 248-9 1297-38 1964-267 115 172 363 592 363 1011 0 820-592 1497-1335 1497-744 0-1345-667-1354-1497zM277 8163v-582c0-210 133-391 333-439l1106-305 439 658c48 76 124 115 210 124 9 0 19 10 28 10 58 0 115-19 163-58 19 67 57 124 114 172l-124 582H1316v-458c0-76-67-143-143-143s-134 67-134 143v458H429c-86 0-152-77-152-162zm5368-582v582c0 85-76 162-162 162h-601v-458c0-76-66-143-143-143-76 0-143 67-143 143v458H3376l-115-582c48-48 86-105 115-172 47 39 105 58 162 58 9 0 19 0 28-10 86 0 162-48 210-124l429-658 1097 305c200 48 343 229 343 439zm-458-4310c-76 0-143 67-143 143s67 143 143 143h296c76 0 143-67 143-143s-67-143-143-143h-9V2060h9c76 0 143-57 143-134 0-76-67-143-143-143h-296c-76 0-143 67-143 143 0 77 67 134 143 134h10v1211h-10zm143-1822c153 0 277-124 277-267 0-152-124-267-277-267-143 0-266 115-266 267 0 143 123 267 266 267z"></path>
  </symbol>
  <symbol xmlns="http://www.w3.org/2000/svg" shape-rendering="geometricPrecision" image-rendering="optimizeQuality" fill-rule="evenodd" xmlnsV="https://vecta.io/nano" viewBox="0 0 9697 9697" id="search">
    <path d="M9576 9007L7212 6642c580-699 924-1601 924-2569C8136 1827 6309 0 4073 0 1827 0 0 1827 0 4073c0 2236 1827 4063 4073 4063 968 0 1870-344 2569-924l2365 2364c150 161 408 161 569 0s161-419 0-569zM806 4073c0-1805 1462-3267 3267-3267 1795 0 3257 1462 3257 3267 0 1795-1462 3257-3257 3257-1805 0-3267-1462-3267-3257z"></path>
  </symbol>
  <symbol xmlns="http://www.w3.org/2000/svg" shape-rendering="geometricPrecision" image-rendering="optimizeQuality" fill-rule="evenodd" xmlnsV="https://vecta.io/nano" viewBox="0 0 13234 13234" id="whatsapp">
    <path d="M678 6278c0 982 226 1912 628 2740l-2-2L0 13234l4218-1305-2-2c828 403 1757 629 2740 629 3467 0 6278-2811 6278-6278S10423 0 6956 0 678 2811 678 6278zm5151-2925c-402-179-731-15-1008 281-1703 1820 3015 6538 4835 4836 296-278 460-606 281-1009-32-74-209-166-437-250-262-97-592-185-843-225-440-69-318 13-617 274-653 569-2579-1357-2010-2010 261-298 343-177 274-617-40-251-127-581-225-843-84-228-176-405-250-437z"></path>
  </symbol>
</svg>